<svg xmlns="http://www.w3.org/2000/svg" viewBox="0 0 444 336"><defs><style>.cls-1{fill:#b5e0ea;}.cls-2{fill:#164a6d;}.cls-3{fill:#3c8ec6;}</style></defs><title>minimized blue</title><g id="Layer_3" data-name="Layer 3"><rect class="cls-1" x="0.5" y="-8.28" width="444" height="352.57"/><rect class="cls-2" x="31.8" y="27.47" width="34.01" height="34.01"/><path class="cls-2" d="M155.63,27.56A8.47,8.47,0,0,1,164.1,36V44.5h0V61.4H138.73a8.48,8.48,0,0,1-8.48-8.47h0a8.48,8.48,0,0,1,8.48-8.47h8.42V36a8.48,8.48,0,0,1,8.48-8.47Z"/><rect class="cls-2" x="229.62" y="27.47" width="34.01" height="34.01"/><path class="cls-2" d="M353.44,27.56A8.47,8.47,0,0,1,361.91,36V44.5h0V61.4H336.54a8.47,8.47,0,0,1-8.47-8.47h0a8.47,8.47,0,0,1,8.47-8.47H345V36a8.47,8.47,0,0,1,8.47-8.47Z"/><polygon class="cls-3" points="114.64 50.9 104.43 50.9 104.43 61.11 114.64 50.9"/><circle class="cls-3" cx="90.81" cy="54.23" r="8.43"/><circle class="cls-3" cx="107.76" cy="37.27" r="8.43"/><circle class="cls-3" cx="88.27" cy="34.73" r="8.43"/><path class="cls-3" d="M214,36a8.48,8.48,0,0,0-8.48-8.47H180.12V52.93a8.47,8.47,0,0,0,8.47,8.47h0a8.48,8.48,0,0,0,8.48-8.47V44.5h8.42A8.48,8.48,0,0,0,214,36Z"/><polygon class="cls-3" points="212.46 49.68 202.25 49.68 202.25 59.9 212.46 49.68"/><polygon class="cls-3" points="312.46 50.9 302.25 50.9 302.25 61.11 312.46 50.9"/><circle class="cls-3" cx="288.63" cy="54.23" r="8.43"/><circle class="cls-3" cx="305.58" cy="37.27" r="8.43"/><circle class="cls-3" cx="286.08" cy="34.73" r="8.43"/><path class="cls-3" d="M412.12,36a8.48,8.48,0,0,0-8.48-8.47H378.27V52.93a8.47,8.47,0,0,0,8.47,8.47h0a8.48,8.48,0,0,0,8.48-8.47V44.5h8.42A8.48,8.48,0,0,0,412.12,36Z"/><polygon class="cls-3" points="410.61 49.68 400.4 49.68 400.4 59.9 410.61 49.68"/><rect class="cls-2" x="81.01" y="76.88" width="34.01" height="34.01"/><path class="cls-2" d="M205.49,77A8.48,8.48,0,0,1,214,85.44v8.47h0v16.9H188.59a8.47,8.47,0,0,1-8.47-8.47h0a8.48,8.48,0,0,1,8.47-8.48H197V85.44A8.48,8.48,0,0,1,205.49,77Z"/><rect class="cls-2" x="278.83" y="76.88" width="34.01" height="34.01"/><path class="cls-2" d="M403.64,77a8.48,8.48,0,0,1,8.48,8.48v8.47h0v16.9H386.74a8.47,8.47,0,0,1-8.47-8.47h0a8.48,8.48,0,0,1,8.47-8.48h8.43V85.44A8.48,8.48,0,0,1,403.64,77Z"/><polygon class="cls-3" points="163.81 100.31 153.59 100.31 153.59 110.52 163.81 100.31"/><circle class="cls-3" cx="139.97" cy="103.64" r="8.43"/><circle class="cls-3" cx="156.92" cy="86.68" r="8.43"/><circle class="cls-3" cx="137.43" cy="84.14" r="8.43"/><path class="cls-3" d="M65.73,85.44A8.48,8.48,0,0,0,57.26,77H31.88v25.38a8.48,8.48,0,0,0,8.48,8.47h0a8.47,8.47,0,0,0,8.47-8.47V93.91h8.43a8.47,8.47,0,0,0,8.47-8.47Z"/><polygon class="cls-3" points="64.22 99.09 54.01 99.09 54.01 109.3 64.22 99.09"/><polygon class="cls-3" points="361.62 100.31 351.41 100.31 351.41 110.52 361.62 100.31"/><circle class="cls-3" cx="337.78" cy="103.64" r="8.43"/><circle class="cls-3" cx="354.74" cy="86.68" r="8.43"/><circle class="cls-3" cx="335.24" cy="84.14" r="8.43"/><path class="cls-3" d="M263.55,85.44A8.48,8.48,0,0,0,255.07,77H229.7v25.38a8.47,8.47,0,0,0,8.47,8.47h0a8.48,8.48,0,0,0,8.48-8.47V93.91h8.42a8.48,8.48,0,0,0,8.48-8.47Z"/><polygon class="cls-3" points="262.04 99.09 251.83 99.09 251.83 109.3 262.04 99.09"/><rect class="cls-2" x="130.17" y="126.29" width="34.01" height="34.01"/><path class="cls-2" d="M57.26,126.37a8.48,8.48,0,0,1,8.47,8.48v8.47h0v16.9H40.36a8.48,8.48,0,0,1-8.48-8.47h0a8.48,8.48,0,0,1,8.48-8.48h8.42v-8.42a8.48,8.48,0,0,1,8.48-8.48Z"/><rect class="cls-2" x="327.99" y="126.29" width="34.01" height="34.01"/><path class="cls-2" d="M255.07,126.37a8.48,8.48,0,0,1,8.48,8.48v8.47h0v16.9H238.17a8.47,8.47,0,0,1-8.47-8.47h0a8.48,8.48,0,0,1,8.47-8.48h8.43v-8.42a8.48,8.48,0,0,1,8.47-8.48Z"/><polygon class="cls-3" points="213.67 149.71 203.46 149.71 203.46 159.93 213.67 149.71"/><circle class="cls-3" cx="189.84" cy="153.04" r="8.43"/><circle class="cls-3" cx="206.79" cy="136.09" r="8.43"/><circle class="cls-3" cx="187.29" cy="133.55" r="8.43"/><path class="cls-3" d="M114.94,134.85a8.48,8.48,0,0,0-8.47-8.48H81.09v25.38a8.48,8.48,0,0,0,8.48,8.47h0A8.47,8.47,0,0,0,98,151.75v-8.43h8.43a8.47,8.47,0,0,0,8.47-8.47Z"/><polygon class="cls-3" points="113.43 148.5 103.22 148.5 103.22 158.71 113.43 148.5"/><polygon class="cls-3" points="411.82 149.71 401.61 149.71 401.61 159.93 411.82 149.71"/><circle class="cls-3" cx="387.99" cy="153.04" r="8.43"/><circle class="cls-3" cx="404.94" cy="136.09" r="8.43"/><circle class="cls-3" cx="385.44" cy="133.55" r="8.43"/><path class="cls-3" d="M312.75,134.85a8.48,8.48,0,0,0-8.47-8.48H278.91v25.38a8.47,8.47,0,0,0,8.47,8.47h0a8.47,8.47,0,0,0,8.47-8.47v-8.43h8.43a8.47,8.47,0,0,0,8.47-8.47Z"/><polygon class="cls-3" points="311.25 148.5 301.03 148.5 301.03 158.71 311.25 148.5"/><rect class="cls-2" x="180.04" y="175.7" width="34.01" height="34.01"/><path class="cls-2" d="M106.47,175.78a8.47,8.47,0,0,1,8.47,8.47v8.48h0v16.9H89.57a8.48,8.48,0,0,1-8.48-8.48h0a8.48,8.48,0,0,1,8.48-8.47H98v-8.43a8.48,8.48,0,0,1,8.48-8.47Z"/><rect class="cls-2" x="378.19" y="175.7" width="34.01" height="34.01"/><path class="cls-2" d="M304.28,175.78a8.47,8.47,0,0,1,8.47,8.47v8.48h0v16.9H287.38a8.48,8.48,0,0,1-8.47-8.48h0a8.47,8.47,0,0,1,8.47-8.47h8.43v-8.43a8.47,8.47,0,0,1,8.47-8.47Z"/><polygon class="cls-3" points="65.44 199.12 55.23 199.12 55.23 209.33 65.44 199.12"/><circle class="cls-3" cx="41.6" cy="202.45" r="8.43"/><circle class="cls-3" cx="58.56" cy="185.5" r="8.43"/><circle class="cls-3" cx="39.06" cy="182.96" r="8.43"/><path class="cls-3" d="M164.1,184.25a8.47,8.47,0,0,0-8.47-8.47H130.25v25.37a8.48,8.48,0,0,0,8.48,8.48h0a8.48,8.48,0,0,0,8.47-8.48v-8.42h8.43a8.48,8.48,0,0,0,8.47-8.48Z"/><polygon class="cls-3" points="162.59 197.91 152.38 197.91 152.38 208.12 162.59 197.91"/><polygon class="cls-3" points="263.25 199.12 253.04 199.12 253.04 209.33 263.25 199.12"/><circle class="cls-3" cx="239.42" cy="202.45" r="8.43"/><circle class="cls-3" cx="256.37" cy="185.5" r="8.43"/><circle class="cls-3" cx="236.87" cy="182.96" r="8.43"/><path class="cls-3" d="M361.91,184.25a8.47,8.47,0,0,0-8.47-8.47H328.07v25.37a8.48,8.48,0,0,0,8.47,8.48h0a8.48,8.48,0,0,0,8.47-8.48v-8.42h8.43a8.48,8.48,0,0,0,8.47-8.48Z"/><polygon class="cls-3" points="360.41 197.91 350.19 197.91 350.19 208.12 360.41 197.91"/><rect class="cls-2" x="81.01" y="274.52" width="34.01" height="34.01"/><rect class="cls-2" x="278.83" y="274.52" width="34.01" height="34.01"/><path class="cls-2" d="M205.49,274.6a8.48,8.48,0,0,1,8.48,8.47v8.47h0v16.9H188.59a8.47,8.47,0,0,1-8.47-8.47h0a8.47,8.47,0,0,1,8.47-8.47H197v-8.43a8.47,8.47,0,0,1,8.47-8.47Z"/><polygon class="cls-3" points="163.81 297.94 153.59 297.94 153.59 308.15 163.81 297.94"/><circle class="cls-3" cx="139.97" cy="301.27" r="8.43"/><circle class="cls-3" cx="156.92" cy="284.32" r="8.43"/><circle class="cls-3" cx="137.43" cy="281.77" r="8.43"/><path class="cls-3" d="M65.73,283.07a8.47,8.47,0,0,0-8.47-8.47H31.88V300a8.48,8.48,0,0,0,8.48,8.47h0A8.47,8.47,0,0,0,48.83,300v-8.43h8.43a8.47,8.47,0,0,0,8.47-8.47Z"/><polygon class="cls-3" points="64.22 296.73 54.01 296.73 54.01 306.94 64.22 296.73"/><polygon class="cls-3" points="361.62 297.94 351.41 297.94 351.41 308.15 361.62 297.94"/><circle class="cls-3" cx="337.78" cy="301.27" r="8.43"/><circle class="cls-3" cx="354.74" cy="284.32" r="8.43"/><circle class="cls-3" cx="335.24" cy="281.77" r="8.43"/><path class="cls-3" d="M263.55,283.07a8.48,8.48,0,0,0-8.48-8.47H229.7V300a8.47,8.47,0,0,0,8.47,8.47h0a8.48,8.48,0,0,0,8.48-8.47v-8.43h8.42a8.48,8.48,0,0,0,8.48-8.47Z"/><polygon class="cls-3" points="262.04 296.73 251.83 296.73 251.83 306.94 262.04 296.73"/><path class="cls-2" d="M403.64,274.6a8.48,8.48,0,0,1,8.48,8.47v8.47h0v16.9H386.74a8.47,8.47,0,0,1-8.47-8.47h0a8.47,8.47,0,0,1,8.47-8.47h8.43v-8.43a8.47,8.47,0,0,1,8.47-8.47Z"/><rect class="cls-2" x="31.8" y="225.11" width="34.01" height="34.01"/><path class="cls-2" d="M155.63,225.19a8.47,8.47,0,0,1,8.47,8.47v8.48h0V259H138.73a8.48,8.48,0,0,1-8.48-8.48h0a8.48,8.48,0,0,1,8.48-8.47h8.42v-8.43a8.48,8.48,0,0,1,8.48-8.47Z"/><path class="cls-2" d="M353.44,225.19a8.47,8.47,0,0,1,8.47,8.47v8.48h0V259H336.54a8.48,8.48,0,0,1-8.47-8.48h0a8.47,8.47,0,0,1,8.47-8.47H345v-8.43a8.47,8.47,0,0,1,8.47-8.47Z"/><polygon class="cls-3" points="114.64 248.53 104.43 248.53 104.43 258.74 114.64 248.53"/><circle class="cls-3" cx="90.81" cy="251.86" r="8.43"/><circle class="cls-3" cx="107.76" cy="234.91" r="8.43"/><circle class="cls-3" cx="88.27" cy="232.36" r="8.43"/><polygon class="cls-3" points="312.46 248.53 302.25 248.53 302.25 258.74 312.46 248.53"/><circle class="cls-3" cx="288.63" cy="251.86" r="8.43"/><circle class="cls-3" cx="305.58" cy="234.91" r="8.43"/><circle class="cls-3" cx="286.08" cy="232.36" r="8.43"/><path class="cls-3" d="M214,233.66a8.48,8.48,0,0,0-8.48-8.47H180.12v25.37a8.48,8.48,0,0,0,8.47,8.48h0a8.48,8.48,0,0,0,8.48-8.48v-8.42h8.42a8.48,8.48,0,0,0,8.48-8.48Z"/><polygon class="cls-3" points="212.46 247.32 202.25 247.32 202.25 257.53 212.46 247.32"/><path class="cls-3" d="M412.12,233.66a8.48,8.48,0,0,0-8.48-8.47H378.27v25.37a8.48,8.48,0,0,0,8.47,8.48h0a8.48,8.48,0,0,0,8.48-8.48v-8.42h8.42a8.48,8.48,0,0,0,8.48-8.48Z"/><polygon class="cls-3" points="410.61 247.32 400.4 247.32 400.4 257.53 410.61 247.32"/><rect class="cls-2" x="229.62" y="225.11" width="34.01" height="34.01"/></g></svg>