<svg xmlns="http://www.w3.org/2000/svg" viewBox="0 0 52 72.8"><defs><style>.cls-1{fill:#fff;}</style></defs><title>open can</title><g id="Layer_3" data-name="Layer 3"><path class="cls-1" d="M45.77,10.08,33.26,8.32l.06-.43a5.75,5.75,0,0,0-4.9-6.5h0a5.76,5.76,0,0,0-6.51,4.9l-.06.42L8.66,4.86a5.77,5.77,0,0,0-6.51,4.9h0a5.77,5.77,0,0,0,4.9,6.51l37.12,5.21a5.76,5.76,0,0,0,6.51-4.9h0A5.76,5.76,0,0,0,45.77,10.08Z"/><path class="cls-1" d="M44.08,26.1h0a5.75,5.75,0,0,0-6.24,5.23l-2.5,28.55H32.48V31.77A5.76,5.76,0,0,0,26.72,26h0A5.76,5.76,0,0,0,21,31.77V59.88H18.09l-2.5-28.55A5.75,5.75,0,0,0,9.35,26.1h0a5.76,5.76,0,0,0-5.24,6.24l3,33.74a5.74,5.74,0,0,0,4.59,5.14,5.66,5.66,0,0,0,1.43.18H40.26a6.21,6.21,0,0,0,6.11-5.32l3-33.74A5.76,5.76,0,0,0,44.08,26.1Z"/></g></svg>