<svg xmlns="http://www.w3.org/2000/svg" viewBox="0 0 444 336"><defs><style>.cls-1{fill:#fccbba;}.cls-2{fill:#f25125;}.cls-3{fill:#e69f23;}</style></defs><title>minimized orange</title><g id="Layer_3" data-name="Layer 3"><rect class="cls-1" x="-0.23" y="-8.46" width="444.45" height="352.93"/><rect class="cls-2" x="31.61" y="27.33" width="34.04" height="34.04"/><path class="cls-2" d="M155.56,27.41A8.48,8.48,0,0,1,164,35.89v8.49h0V61.29h-25.4a8.48,8.48,0,0,1-8.48-8.48h0a8.48,8.48,0,0,1,8.48-8.48h8.44V35.89a8.48,8.48,0,0,1,8.48-8.48Z"/><rect class="cls-2" x="229.63" y="27.33" width="34.04" height="34.04"/><path class="cls-2" d="M353.57,27.41a8.49,8.49,0,0,1,8.49,8.48v8.49h0V61.29h-25.4a8.47,8.47,0,0,1-8.48-8.48h0a8.48,8.48,0,0,1,8.48-8.48h8.43V35.89a8.48,8.48,0,0,1,8.48-8.48Z"/><polygon class="cls-3" points="114.54 50.78 104.31 50.78 104.31 61 114.54 50.78"/><circle class="cls-3" cx="90.68" cy="54.11" r="8.44"/><circle class="cls-3" cx="107.65" cy="37.14" r="8.44"/><circle class="cls-3" cx="88.13" cy="34.59" r="8.44"/><path class="cls-3" d="M214,35.89a8.48,8.48,0,0,0-8.48-8.48h-25.4v25.4a8.47,8.47,0,0,0,8.48,8.48h0A8.48,8.48,0,0,0,197,52.81V44.38h8.44A8.49,8.49,0,0,0,214,35.89Z"/><polygon class="cls-3" points="212.45 49.56 202.23 49.56 202.23 59.78 212.45 49.56"/><polygon class="cls-3" points="312.55 50.78 302.33 50.78 302.33 61 312.55 50.78"/><circle class="cls-3" cx="288.69" cy="54.11" r="8.44"/><circle class="cls-3" cx="305.66" cy="37.14" r="8.44"/><circle class="cls-3" cx="286.15" cy="34.59" r="8.44"/><path class="cls-3" d="M412.31,35.89a8.48,8.48,0,0,0-8.48-8.48h-25.4v25.4a8.48,8.48,0,0,0,8.48,8.48h0a8.47,8.47,0,0,0,8.48-8.48V44.38h8.44a8.49,8.49,0,0,0,8.48-8.49Z"/><polygon class="cls-3" points="410.8 49.56 400.58 49.56 400.58 59.78 410.8 49.56"/><rect class="cls-2" x="80.87" y="76.79" width="34.04" height="34.04"/><path class="cls-2" d="M205.48,76.87A8.48,8.48,0,0,1,214,85.35v8.49h0v16.91h-25.4a8.48,8.48,0,0,1-8.48-8.48h0a8.48,8.48,0,0,1,8.48-8.48H197V85.35a8.49,8.49,0,0,1,8.49-8.48Z"/><rect class="cls-2" x="278.88" y="76.79" width="34.04" height="34.04"/><path class="cls-2" d="M403.83,76.87a8.48,8.48,0,0,1,8.48,8.48v8.49h0v16.91h-25.4a8.48,8.48,0,0,1-8.48-8.48h0a8.48,8.48,0,0,1,8.48-8.48h8.44V85.35a8.48,8.48,0,0,1,8.48-8.48Z"/><polygon class="cls-3" points="163.75 100.24 153.52 100.24 153.52 110.46 163.75 100.24"/><circle class="cls-3" cx="139.89" cy="103.57" r="8.44"/><circle class="cls-3" cx="156.86" cy="86.6" r="8.44"/><circle class="cls-3" cx="137.34" cy="84.05" r="8.44"/><path class="cls-3" d="M65.57,85.35a8.48,8.48,0,0,0-8.48-8.48H31.69v25.4a8.48,8.48,0,0,0,8.48,8.48h0a8.48,8.48,0,0,0,8.48-8.48V93.84h8.44a8.49,8.49,0,0,0,8.48-8.49Z"/><polygon class="cls-3" points="64.06 99.02 53.84 99.02 53.84 109.24 64.06 99.02"/><polygon class="cls-3" points="361.76 100.24 351.54 100.24 351.54 110.46 361.76 100.24"/><circle class="cls-3" cx="337.9" cy="103.57" r="8.44"/><circle class="cls-3" cx="354.87" cy="86.6" r="8.44"/><circle class="cls-3" cx="335.36" cy="84.05" r="8.44"/><path class="cls-3" d="M263.59,85.35a8.48,8.48,0,0,0-8.48-8.48h-25.4v25.4a8.48,8.48,0,0,0,8.48,8.48h0a8.48,8.48,0,0,0,8.48-8.48V93.84h8.44a8.49,8.49,0,0,0,8.48-8.49Z"/><polygon class="cls-3" points="262.08 99.02 251.86 99.02 251.86 109.24 262.08 99.02"/><rect class="cls-2" x="130.08" y="126.25" width="34.04" height="34.04"/><path class="cls-2" d="M57.09,126.33a8.48,8.48,0,0,1,8.48,8.48v8.48h0v16.92H40.17a8.48,8.48,0,0,1-8.48-8.48h0a8.48,8.48,0,0,1,8.48-8.48h8.44v-8.44a8.48,8.48,0,0,1,8.48-8.48Z"/><rect class="cls-2" x="328.09" y="126.25" width="34.04" height="34.04"/><path class="cls-2" d="M255.11,126.33a8.48,8.48,0,0,1,8.48,8.48v8.48h0v16.92h-25.4a8.48,8.48,0,0,1-8.48-8.48h0a8.47,8.47,0,0,1,8.48-8.48h8.43v-8.44a8.49,8.49,0,0,1,8.49-8.48Z"/><polygon class="cls-3" points="213.66 149.69 203.44 149.69 203.44 159.92 213.66 149.69"/><circle class="cls-3" cx="189.8" cy="153.03" r="8.44"/><circle class="cls-3" cx="206.78" cy="136.06" r="8.44"/><circle class="cls-3" cx="187.26" cy="133.51" r="8.44"/><path class="cls-3" d="M114.83,134.81a8.48,8.48,0,0,0-8.48-8.48H81v25.4a8.48,8.48,0,0,0,8.48,8.48h0a8.48,8.48,0,0,0,8.48-8.48v-8.44h8.44a8.48,8.48,0,0,0,8.48-8.48Z"/><polygon class="cls-3" points="113.32 148.48 103.1 148.48 103.1 158.7 113.32 148.48"/><polygon class="cls-3" points="412.02 149.69 401.79 149.69 401.79 159.92 412.02 149.69"/><circle class="cls-3" cx="388.16" cy="153.03" r="8.44"/><circle class="cls-3" cx="405.13" cy="136.06" r="8.44"/><circle class="cls-3" cx="385.61" cy="133.51" r="8.44"/><path class="cls-3" d="M312.85,134.81a8.49,8.49,0,0,0-8.49-8.48H279v25.4a8.48,8.48,0,0,0,8.48,8.48h0a8.48,8.48,0,0,0,8.48-8.48v-8.44h8.43a8.48,8.48,0,0,0,8.49-8.48Z"/><polygon class="cls-3" points="311.34 148.48 301.12 148.48 301.12 158.7 311.34 148.48"/><rect class="cls-2" x="179.99" y="175.71" width="34.04" height="34.04"/><path class="cls-2" d="M106.35,175.79a8.48,8.48,0,0,1,8.48,8.48v8.48h0v16.92H89.43A8.48,8.48,0,0,1,81,201.19h0a8.48,8.48,0,0,1,8.48-8.48h8.44v-8.44a8.48,8.48,0,0,1,8.48-8.48Z"/><rect class="cls-2" x="378.35" y="175.71" width="34.04" height="34.04"/><path class="cls-2" d="M304.36,175.79a8.49,8.49,0,0,1,8.49,8.48v8.48h0v16.92h-25.4a8.48,8.48,0,0,1-8.48-8.48h0a8.47,8.47,0,0,1,8.48-8.48h8.43v-8.44a8.48,8.48,0,0,1,8.48-8.48Z"/><polygon class="cls-3" points="65.28 199.15 55.05 199.15 55.05 209.38 65.28 199.15"/><circle class="cls-3" cx="41.42" cy="202.49" r="8.44"/><circle class="cls-3" cx="58.39" cy="185.52" r="8.44"/><circle class="cls-3" cx="38.87" cy="182.97" r="8.44"/><path class="cls-3" d="M164,184.27a8.48,8.48,0,0,0-8.48-8.48h-25.4v25.4a8.48,8.48,0,0,0,8.48,8.48h0a8.48,8.48,0,0,0,8.48-8.48v-8.44h8.44a8.48,8.48,0,0,0,8.48-8.48Z"/><polygon class="cls-3" points="162.53 197.94 152.31 197.94 152.31 208.16 162.53 197.94"/><polygon class="cls-3" points="263.29 199.15 253.07 199.15 253.07 209.38 263.29 199.15"/><circle class="cls-3" cx="239.43" cy="202.49" r="8.44"/><circle class="cls-3" cx="256.41" cy="185.52" r="8.44"/><circle class="cls-3" cx="236.89" cy="182.97" r="8.44"/><path class="cls-3" d="M362.06,184.27a8.49,8.49,0,0,0-8.49-8.48H328.18v25.4a8.48,8.48,0,0,0,8.48,8.48h0a8.48,8.48,0,0,0,8.48-8.48v-8.44h8.43a8.48,8.48,0,0,0,8.49-8.48Z"/><polygon class="cls-3" points="360.55 197.94 350.32 197.94 350.32 208.16 360.55 197.94"/><rect class="cls-2" x="80.87" y="274.63" width="34.04" height="34.04"/><rect class="cls-2" x="278.88" y="274.63" width="34.04" height="34.04"/><path class="cls-2" d="M205.48,274.71a8.48,8.48,0,0,1,8.48,8.48v8.48h0v16.92h-25.4a8.48,8.48,0,0,1-8.48-8.48h0a8.48,8.48,0,0,1,8.48-8.49H197v-8.43a8.48,8.48,0,0,1,8.49-8.48Z"/><polygon class="cls-3" points="163.75 298.07 153.52 298.07 153.52 308.29 163.75 298.07"/><circle class="cls-3" cx="139.89" cy="301.41" r="8.44"/><circle class="cls-3" cx="156.86" cy="284.43" r="8.44"/><circle class="cls-3" cx="137.34" cy="281.89" r="8.44"/><path class="cls-3" d="M65.57,283.19a8.48,8.48,0,0,0-8.48-8.48H31.69v25.4a8.48,8.48,0,0,0,8.48,8.48h0a8.48,8.48,0,0,0,8.48-8.48v-8.44h8.44a8.48,8.48,0,0,0,8.48-8.48Z"/><polygon class="cls-3" points="64.06 296.86 53.84 296.86 53.84 307.08 64.06 296.86"/><polygon class="cls-3" points="361.76 298.07 351.54 298.07 351.54 308.29 361.76 298.07"/><circle class="cls-3" cx="337.9" cy="301.41" r="8.44"/><circle class="cls-3" cx="354.87" cy="284.43" r="8.44"/><circle class="cls-3" cx="335.36" cy="281.89" r="8.44"/><path class="cls-3" d="M263.59,283.19a8.48,8.48,0,0,0-8.48-8.48h-25.4v25.4a8.48,8.48,0,0,0,8.48,8.48h0a8.48,8.48,0,0,0,8.48-8.48v-8.44h8.44a8.48,8.48,0,0,0,8.48-8.48Z"/><polygon class="cls-3" points="262.08 296.86 251.86 296.86 251.86 307.08 262.08 296.86"/><path class="cls-2" d="M403.83,274.71a8.48,8.48,0,0,1,8.48,8.48v8.48h0v16.92h-25.4a8.48,8.48,0,0,1-8.48-8.48h0a8.49,8.49,0,0,1,8.48-8.49h8.44v-8.43a8.47,8.47,0,0,1,8.48-8.48Z"/><rect class="cls-2" x="31.61" y="225.17" width="34.04" height="34.04"/><path class="cls-2" d="M155.56,225.25a8.48,8.48,0,0,1,8.48,8.48v8.48h0v16.92h-25.4a8.48,8.48,0,0,1-8.48-8.48h0a8.49,8.49,0,0,1,8.48-8.49h8.44v-8.43a8.48,8.48,0,0,1,8.48-8.48Z"/><path class="cls-2" d="M353.57,225.25a8.49,8.49,0,0,1,8.49,8.48v8.48h0v16.92h-25.4a8.48,8.48,0,0,1-8.48-8.48h0a8.48,8.48,0,0,1,8.48-8.49h8.43v-8.43a8.48,8.48,0,0,1,8.48-8.48Z"/><polygon class="cls-3" points="114.54 248.61 104.31 248.61 104.31 258.83 114.54 248.61"/><circle class="cls-3" cx="90.68" cy="251.95" r="8.44"/><circle class="cls-3" cx="107.65" cy="234.98" r="8.44"/><circle class="cls-3" cx="88.13" cy="232.43" r="8.44"/><polygon class="cls-3" points="312.55 248.61 302.33 248.61 302.33 258.83 312.55 248.61"/><circle class="cls-3" cx="288.69" cy="251.95" r="8.44"/><circle class="cls-3" cx="305.66" cy="234.98" r="8.44"/><circle class="cls-3" cx="286.15" cy="232.43" r="8.44"/><path class="cls-3" d="M214,233.73a8.48,8.48,0,0,0-8.48-8.48h-25.4v25.4a8.48,8.48,0,0,0,8.48,8.48h0a8.48,8.48,0,0,0,8.48-8.48v-8.44h8.44a8.48,8.48,0,0,0,8.48-8.48Z"/><polygon class="cls-3" points="212.45 247.4 202.23 247.4 202.23 257.62 212.45 247.4"/><path class="cls-3" d="M412.31,233.73a8.48,8.48,0,0,0-8.48-8.48h-25.4v25.4a8.48,8.48,0,0,0,8.48,8.48h0a8.48,8.48,0,0,0,8.48-8.48v-8.44h8.44a8.48,8.48,0,0,0,8.48-8.48Z"/><polygon class="cls-3" points="410.8 247.4 400.58 247.4 400.58 257.62 410.8 247.4"/><rect class="cls-2" x="229.63" y="225.17" width="34.04" height="34.04"/></g></svg>