<svg xmlns="http://www.w3.org/2000/svg" viewBox="0 0 52 72.8"><defs><style>.cls-1{fill:#fff;}</style></defs><title>closed can</title><g id="Layer_3" data-name="Layer 3"><path class="cls-1" d="M44.74,8.6H32.1V8.17a5.76,5.76,0,0,0-5.76-5.76h0a5.76,5.76,0,0,0-5.76,5.76V8.6H7.26A5.76,5.76,0,0,0,1.5,14.36h0a5.76,5.76,0,0,0,5.76,5.76H44.74a5.76,5.76,0,0,0,5.76-5.76h0A5.76,5.76,0,0,0,44.74,8.6Z"/><path class="cls-1" d="M43.75,24.67h0a5.77,5.77,0,0,0-6.24,5.24L35,58.46H32.15V30.35a5.76,5.76,0,0,0-5.76-5.76h0a5.76,5.76,0,0,0-5.76,5.76V58.46H17.76l-2.5-28.55A5.77,5.77,0,0,0,9,24.67H9a5.75,5.75,0,0,0-5.23,6.24l3,33.75a5.76,5.76,0,0,0,4.59,5.14,6.15,6.15,0,0,0,1.43.18H39.93a5.76,5.76,0,0,0,1.18-.13A5.75,5.75,0,0,0,46,64.66l3-33.75A5.76,5.76,0,0,0,43.75,24.67Z"/></g></svg>