<svg xmlns="http://www.w3.org/2000/svg" viewBox="0 0 444 336"><defs><style>.cls-1{fill:#c1e5c1;}.cls-2{fill:#236b36;}.cls-3{fill:#249e8a;}</style></defs><title>minimized green</title><g id="Layer_3" data-name="Layer 3"><rect class="cls-1" x="0.5" y="-7.72" width="444" height="351.45"/><rect class="cls-2" x="31.72" y="26.78" width="34.02" height="34.02"/><path class="cls-2" d="M155.6,26.86a8.48,8.48,0,0,1,8.47,8.48v8.47h0V60.72H138.69a8.48,8.48,0,0,1-8.48-8.48h0a8.48,8.48,0,0,1,8.48-8.47h8.43V35.34a8.48,8.48,0,0,1,8.48-8.48Z"/><rect class="cls-2" x="229.62" y="26.78" width="34.02" height="34.02"/><path class="cls-2" d="M353.5,26.86A8.48,8.48,0,0,1,362,35.34v8.47h0V60.72H336.59a8.48,8.48,0,0,1-8.48-8.48h0a8.48,8.48,0,0,1,8.48-8.47H345V35.34a8.48,8.48,0,0,1,8.48-8.48Z"/><polygon class="cls-3" points="114.6 50.21 104.38 50.21 104.38 60.43 114.6 50.21"/><circle class="cls-3" cx="90.75" cy="53.54" r="8.43"/><circle class="cls-3" cx="107.71" cy="36.58" r="8.43"/><circle class="cls-3" cx="88.21" cy="34.04" r="8.43"/><path class="cls-3" d="M214,35.34a8.48,8.48,0,0,0-8.48-8.48H180.1V52.24a8.48,8.48,0,0,0,8.48,8.48h0a8.48,8.48,0,0,0,8.48-8.48V43.81h8.42A8.47,8.47,0,0,0,214,35.34Z"/><polygon class="cls-3" points="212.45 49 202.24 49 202.24 59.21 212.45 49"/><polygon class="cls-3" points="312.5 50.21 302.28 50.21 302.28 60.43 312.5 50.21"/><circle class="cls-3" cx="288.65" cy="53.54" r="8.43"/><circle class="cls-3" cx="305.62" cy="36.58" r="8.43"/><circle class="cls-3" cx="286.11" cy="34.04" r="8.43"/><path class="cls-3" d="M412.2,35.34a8.48,8.48,0,0,0-8.48-8.48H378.34V52.24a8.47,8.47,0,0,0,8.47,8.48h0a8.47,8.47,0,0,0,8.48-8.48V43.81h8.43a8.48,8.48,0,0,0,8.48-8.47Z"/><polygon class="cls-3" points="410.69 49 400.47 49 400.47 59.21 410.69 49"/><rect class="cls-2" x="80.95" y="76.21" width="34.02" height="34.02"/><path class="cls-2" d="M205.48,76.29A8.48,8.48,0,0,1,214,84.77v8.47h0v16.91H188.58a8.48,8.48,0,0,1-8.48-8.48h0a8.48,8.48,0,0,1,8.48-8.47H197V84.77a8.48,8.48,0,0,1,8.47-8.48Z"/><rect class="cls-2" x="278.85" y="76.21" width="34.02" height="34.02"/><path class="cls-2" d="M403.72,76.29a8.48,8.48,0,0,1,8.48,8.48v8.47h0v16.91H386.81a8.47,8.47,0,0,1-8.47-8.48h0a8.47,8.47,0,0,1,8.47-8.47h8.43V84.77a8.48,8.48,0,0,1,8.48-8.48Z"/><polygon class="cls-3" points="163.78 99.64 153.56 99.64 153.56 109.86 163.78 99.64"/><circle class="cls-3" cx="139.93" cy="102.97" r="8.43"/><circle class="cls-3" cx="156.9" cy="86.01" r="8.43"/><circle class="cls-3" cx="137.39" cy="83.47" r="8.43"/><path class="cls-3" d="M65.66,84.77a8.48,8.48,0,0,0-8.47-8.48H31.8v25.38a8.48,8.48,0,0,0,8.48,8.48h0a8.48,8.48,0,0,0,8.48-8.48V93.24h8.43a8.47,8.47,0,0,0,8.47-8.47Z"/><polygon class="cls-3" points="64.16 98.43 53.94 98.43 53.94 108.64 64.16 98.43"/><polygon class="cls-3" points="361.68 99.64 351.46 99.64 351.46 109.86 361.68 99.64"/><circle class="cls-3" cx="337.83" cy="102.97" r="8.43"/><circle class="cls-3" cx="354.8" cy="86.01" r="8.43"/><circle class="cls-3" cx="335.29" cy="83.47" r="8.43"/><path class="cls-3" d="M263.56,84.77a8.48,8.48,0,0,0-8.47-8.48H229.7v25.38a8.48,8.48,0,0,0,8.48,8.48h0a8.48,8.48,0,0,0,8.48-8.48V93.24h8.43a8.47,8.47,0,0,0,8.47-8.47Z"/><polygon class="cls-3" points="262.06 98.43 251.84 98.43 251.84 108.64 262.06 98.43"/><rect class="cls-2" x="130.13" y="125.64" width="34.02" height="34.02"/><path class="cls-2" d="M57.19,125.72a8.48,8.48,0,0,1,8.47,8.48v8.47h0v16.91H40.28a8.48,8.48,0,0,1-8.48-8.48h0a8.48,8.48,0,0,1,8.48-8.47h8.43V134.2a8.48,8.48,0,0,1,8.48-8.48Z"/><rect class="cls-2" x="328.03" y="125.64" width="34.02" height="34.02"/><path class="cls-2" d="M255.09,125.72a8.48,8.48,0,0,1,8.47,8.48v8.47h0v16.91H238.18a8.48,8.48,0,0,1-8.48-8.48h0a8.48,8.48,0,0,1,8.48-8.47h8.43V134.2a8.48,8.48,0,0,1,8.48-8.48Z"/><polygon class="cls-3" points="213.67 149.07 203.45 149.07 203.45 159.29 213.67 149.07"/><circle class="cls-3" cx="189.82" cy="152.4" r="8.43"/><circle class="cls-3" cx="206.78" cy="135.44" r="8.43"/><circle class="cls-3" cx="187.28" cy="132.9" r="8.43"/><path class="cls-3" d="M114.89,134.2a8.48,8.48,0,0,0-8.47-8.48H81V151.1a8.48,8.48,0,0,0,8.48,8.48h0A8.48,8.48,0,0,0,98,151.1v-8.43h8.43a8.47,8.47,0,0,0,8.47-8.47Z"/><polygon class="cls-3" points="113.38 147.86 103.17 147.86 103.17 158.07 113.38 147.86"/><polygon class="cls-3" points="411.9 149.07 401.69 149.07 401.69 159.29 411.9 149.07"/><circle class="cls-3" cx="388.06" cy="152.4" r="8.43"/><circle class="cls-3" cx="405.02" cy="135.44" r="8.43"/><circle class="cls-3" cx="385.51" cy="132.9" r="8.43"/><path class="cls-3" d="M312.79,134.2a8.48,8.48,0,0,0-8.47-8.48H278.93V151.1a8.48,8.48,0,0,0,8.48,8.48h0a8.48,8.48,0,0,0,8.48-8.48v-8.43h8.43a8.47,8.47,0,0,0,8.47-8.47Z"/><polygon class="cls-3" points="311.29 147.86 301.07 147.86 301.07 158.07 311.29 147.86"/><rect class="cls-2" x="180.02" y="175.07" width="34.02" height="34.02"/><path class="cls-2" d="M106.42,175.15a8.48,8.48,0,0,1,8.47,8.48v8.47h0V209H89.51A8.48,8.48,0,0,1,81,200.53h0a8.48,8.48,0,0,1,8.48-8.47h8.43v-8.43a8.48,8.48,0,0,1,8.48-8.48Z"/><rect class="cls-2" x="378.26" y="175.07" width="34.02" height="34.02"/><path class="cls-2" d="M304.32,175.15a8.48,8.48,0,0,1,8.47,8.48v8.47h0V209H287.41a8.48,8.48,0,0,1-8.48-8.48h0a8.48,8.48,0,0,1,8.48-8.47h8.43v-8.43a8.48,8.48,0,0,1,8.48-8.48Z"/><polygon class="cls-3" points="65.37 198.5 55.15 198.5 55.15 208.72 65.37 198.5"/><circle class="cls-3" cx="41.52" cy="201.83" r="8.43"/><circle class="cls-3" cx="58.49" cy="184.87" r="8.43"/><circle class="cls-3" cx="38.98" cy="182.33" r="8.43"/><path class="cls-3" d="M164.07,183.63a8.48,8.48,0,0,0-8.47-8.48H130.21v25.38a8.48,8.48,0,0,0,8.48,8.48h0a8.48,8.48,0,0,0,8.48-8.48V192.1h8.43a8.47,8.47,0,0,0,8.47-8.47Z"/><polygon class="cls-3" points="162.56 197.29 152.35 197.29 152.35 207.5 162.56 197.29"/><polygon class="cls-3" points="263.27 198.5 253.05 198.5 253.05 208.72 263.27 198.5"/><circle class="cls-3" cx="239.42" cy="201.83" r="8.43"/><circle class="cls-3" cx="256.39" cy="184.87" r="8.43"/><circle class="cls-3" cx="236.88" cy="182.33" r="8.43"/><path class="cls-3" d="M362,183.63a8.48,8.48,0,0,0-8.47-8.48H328.11v25.38a8.48,8.48,0,0,0,8.48,8.48h0a8.48,8.48,0,0,0,8.48-8.48V192.1h8.43a8.47,8.47,0,0,0,8.47-8.47Z"/><polygon class="cls-3" points="360.47 197.29 350.25 197.29 350.25 207.5 360.47 197.29"/><rect class="cls-2" x="80.95" y="273.93" width="34.02" height="34.02"/><rect class="cls-2" x="278.85" y="273.93" width="34.02" height="34.02"/><path class="cls-2" d="M205.48,274a8.48,8.48,0,0,1,8.48,8.48V291h0v16.91H188.58a8.48,8.48,0,0,1-8.48-8.48h0a8.48,8.48,0,0,1,8.48-8.47H197v-8.43a8.48,8.48,0,0,1,8.47-8.48Z"/><polygon class="cls-3" points="163.78 297.36 153.56 297.36 153.56 307.58 163.78 297.36"/><circle class="cls-3" cx="139.93" cy="300.69" r="8.43"/><circle class="cls-3" cx="156.9" cy="283.73" r="8.43"/><circle class="cls-3" cx="137.39" cy="281.19" r="8.43"/><path class="cls-3" d="M65.66,282.49A8.48,8.48,0,0,0,57.19,274H31.8v25.38a8.48,8.48,0,0,0,8.48,8.48h0a8.48,8.48,0,0,0,8.48-8.48V291h8.43a8.47,8.47,0,0,0,8.47-8.47Z"/><polygon class="cls-3" points="64.16 296.15 53.94 296.15 53.94 306.36 64.16 296.15"/><polygon class="cls-3" points="361.68 297.36 351.46 297.36 351.46 307.58 361.68 297.36"/><circle class="cls-3" cx="337.83" cy="300.69" r="8.43"/><circle class="cls-3" cx="354.8" cy="283.73" r="8.43"/><circle class="cls-3" cx="335.29" cy="281.19" r="8.43"/><path class="cls-3" d="M263.56,282.49a8.48,8.48,0,0,0-8.47-8.48H229.7v25.38a8.48,8.48,0,0,0,8.48,8.48h0a8.48,8.48,0,0,0,8.48-8.48V291h8.43a8.47,8.47,0,0,0,8.47-8.47Z"/><polygon class="cls-3" points="262.06 296.15 251.84 296.15 251.84 306.36 262.06 296.15"/><path class="cls-2" d="M403.72,274a8.48,8.48,0,0,1,8.48,8.48V291h0v16.91H386.81a8.47,8.47,0,0,1-8.47-8.48h0a8.47,8.47,0,0,1,8.47-8.47h8.43v-8.43a8.48,8.48,0,0,1,8.48-8.48Z"/><rect class="cls-2" x="31.72" y="224.5" width="34.02" height="34.02"/><path class="cls-2" d="M155.6,224.58a8.48,8.48,0,0,1,8.47,8.48v8.47h0v16.91H138.69a8.48,8.48,0,0,1-8.48-8.48h0a8.48,8.48,0,0,1,8.48-8.47h8.43v-8.43a8.48,8.48,0,0,1,8.48-8.48Z"/><path class="cls-2" d="M353.5,224.58a8.48,8.48,0,0,1,8.47,8.48v8.47h0v16.91H336.59a8.48,8.48,0,0,1-8.48-8.48h0a8.48,8.48,0,0,1,8.48-8.47H345v-8.43a8.48,8.48,0,0,1,8.48-8.48Z"/><polygon class="cls-3" points="114.6 247.93 104.38 247.93 104.38 258.15 114.6 247.93"/><circle class="cls-3" cx="90.75" cy="251.26" r="8.43"/><circle class="cls-3" cx="107.71" cy="234.3" r="8.43"/><circle class="cls-3" cx="88.21" cy="231.76" r="8.43"/><polygon class="cls-3" points="312.5 247.93 302.28 247.93 302.28 258.15 312.5 247.93"/><circle class="cls-3" cx="288.65" cy="251.26" r="8.43"/><circle class="cls-3" cx="305.62" cy="234.3" r="8.43"/><circle class="cls-3" cx="286.11" cy="231.76" r="8.43"/><path class="cls-3" d="M214,233.06a8.48,8.48,0,0,0-8.48-8.48H180.1V250a8.48,8.48,0,0,0,8.48,8.48h0a8.48,8.48,0,0,0,8.48-8.48v-8.43h8.42a8.47,8.47,0,0,0,8.48-8.47Z"/><polygon class="cls-3" points="212.45 246.72 202.24 246.72 202.24 256.93 212.45 246.72"/><path class="cls-3" d="M412.2,233.06a8.48,8.48,0,0,0-8.48-8.48H378.34V250a8.47,8.47,0,0,0,8.47,8.48h0a8.47,8.47,0,0,0,8.48-8.48v-8.43h8.43a8.48,8.48,0,0,0,8.48-8.47Z"/><polygon class="cls-3" points="410.69 246.72 400.47 246.72 400.47 256.93 410.69 246.72"/><rect class="cls-2" x="229.62" y="224.5" width="34.02" height="34.02"/></g></svg>